<mxfile host="app.diagrams.net" modified="2024-01-18T07:51:34.171Z" agent="Mozilla/5.0 (Windows NT 10.0; Win64; x64) AppleWebKit/537.36 (KHTML, like Gecko) Chrome/120.0.0.0 Safari/537.36" etag="7apiPqEtCWjKBnqDAO0_" version="22.1.18" type="github">
  <diagram name="第 1 页" id="4Qpj_fmBWcSnVKlhVKCQ">
    <mxGraphModel dx="1434" dy="1907" grid="1" gridSize="10" guides="1" tooltips="1" connect="1" arrows="1" fold="1" page="1" pageScale="1" pageWidth="827" pageHeight="1169" math="0" shadow="0">
      <root>
        <mxCell id="0" />
        <mxCell id="1" parent="0" />
        <mxCell id="NZoPy9VmbZLPDRG8ih34-2" value="个人管理架构设计" style="text;html=1;strokeColor=#6c8ebf;fillColor=#dae8fc;align=center;verticalAlign=middle;whiteSpace=wrap;rounded=0;" vertex="1" parent="1">
          <mxGeometry x="660" y="-560" width="200" height="30" as="geometry" />
        </mxCell>
        <mxCell id="NZoPy9VmbZLPDRG8ih34-6" value="" style="edgeStyle=orthogonalEdgeStyle;rounded=0;orthogonalLoop=1;jettySize=auto;html=1;" edge="1" parent="1" source="NZoPy9VmbZLPDRG8ih34-4" target="NZoPy9VmbZLPDRG8ih34-5">
          <mxGeometry relative="1" as="geometry" />
        </mxCell>
        <mxCell id="NZoPy9VmbZLPDRG8ih34-32" value="" style="edgeStyle=orthogonalEdgeStyle;rounded=0;orthogonalLoop=1;jettySize=auto;html=1;" edge="1" parent="1" source="NZoPy9VmbZLPDRG8ih34-4">
          <mxGeometry relative="1" as="geometry">
            <mxPoint x="60" y="375" as="targetPoint" />
          </mxGeometry>
        </mxCell>
        <mxCell id="NZoPy9VmbZLPDRG8ih34-4" value="一，任务闭环" style="text;html=1;strokeColor=none;fillColor=none;align=center;verticalAlign=middle;whiteSpace=wrap;rounded=0;" vertex="1" parent="1">
          <mxGeometry x="20" y="265" width="80" height="30" as="geometry" />
        </mxCell>
        <mxCell id="NZoPy9VmbZLPDRG8ih34-8" value="" style="edgeStyle=orthogonalEdgeStyle;rounded=0;orthogonalLoop=1;jettySize=auto;html=1;" edge="1" parent="1" source="NZoPy9VmbZLPDRG8ih34-5" target="NZoPy9VmbZLPDRG8ih34-7">
          <mxGeometry relative="1" as="geometry" />
        </mxCell>
        <mxCell id="NZoPy9VmbZLPDRG8ih34-5" value="&lt;font style=&quot;font-size: 19px;&quot;&gt;收集&lt;/font&gt;" style="whiteSpace=wrap;html=1;" vertex="1" parent="1">
          <mxGeometry x="160" y="250" width="120" height="60" as="geometry" />
        </mxCell>
        <mxCell id="NZoPy9VmbZLPDRG8ih34-10" value="" style="edgeStyle=orthogonalEdgeStyle;rounded=0;orthogonalLoop=1;jettySize=auto;html=1;" edge="1" parent="1" source="NZoPy9VmbZLPDRG8ih34-7" target="NZoPy9VmbZLPDRG8ih34-9">
          <mxGeometry relative="1" as="geometry" />
        </mxCell>
        <mxCell id="NZoPy9VmbZLPDRG8ih34-7" value="&lt;font style=&quot;font-size: 20px;&quot;&gt;整理&lt;/font&gt;" style="whiteSpace=wrap;html=1;" vertex="1" parent="1">
          <mxGeometry x="360" y="250" width="120" height="60" as="geometry" />
        </mxCell>
        <mxCell id="NZoPy9VmbZLPDRG8ih34-12" value="" style="edgeStyle=orthogonalEdgeStyle;rounded=0;orthogonalLoop=1;jettySize=auto;html=1;" edge="1" parent="1" source="NZoPy9VmbZLPDRG8ih34-9" target="NZoPy9VmbZLPDRG8ih34-11">
          <mxGeometry relative="1" as="geometry" />
        </mxCell>
        <mxCell id="NZoPy9VmbZLPDRG8ih34-38" value="" style="edgeStyle=orthogonalEdgeStyle;rounded=0;orthogonalLoop=1;jettySize=auto;html=1;" edge="1" parent="1" source="NZoPy9VmbZLPDRG8ih34-9" target="NZoPy9VmbZLPDRG8ih34-36">
          <mxGeometry relative="1" as="geometry" />
        </mxCell>
        <mxCell id="NZoPy9VmbZLPDRG8ih34-9" value="执行" style="whiteSpace=wrap;html=1;" vertex="1" parent="1">
          <mxGeometry x="560" y="250" width="120" height="60" as="geometry" />
        </mxCell>
        <mxCell id="NZoPy9VmbZLPDRG8ih34-14" value="" style="edgeStyle=orthogonalEdgeStyle;rounded=0;orthogonalLoop=1;jettySize=auto;html=1;" edge="1" parent="1" source="NZoPy9VmbZLPDRG8ih34-11" target="NZoPy9VmbZLPDRG8ih34-13">
          <mxGeometry relative="1" as="geometry" />
        </mxCell>
        <mxCell id="NZoPy9VmbZLPDRG8ih34-80" style="edgeStyle=orthogonalEdgeStyle;rounded=0;orthogonalLoop=1;jettySize=auto;html=1;exitX=0;exitY=0.25;exitDx=0;exitDy=0;entryX=1;entryY=0.25;entryDx=0;entryDy=0;" edge="1" parent="1" source="NZoPy9VmbZLPDRG8ih34-11" target="NZoPy9VmbZLPDRG8ih34-9">
          <mxGeometry relative="1" as="geometry" />
        </mxCell>
        <mxCell id="NZoPy9VmbZLPDRG8ih34-11" value="&lt;font style=&quot;font-size: 14px;&quot;&gt;复盘&lt;/font&gt;" style="whiteSpace=wrap;html=1;" vertex="1" parent="1">
          <mxGeometry x="760" y="250" width="120" height="60" as="geometry" />
        </mxCell>
        <mxCell id="NZoPy9VmbZLPDRG8ih34-83" value="" style="edgeStyle=orthogonalEdgeStyle;rounded=0;orthogonalLoop=1;jettySize=auto;html=1;" edge="1" parent="1" source="NZoPy9VmbZLPDRG8ih34-13" target="NZoPy9VmbZLPDRG8ih34-82">
          <mxGeometry relative="1" as="geometry" />
        </mxCell>
        <mxCell id="NZoPy9VmbZLPDRG8ih34-13" value="输出：成果展示" style="whiteSpace=wrap;html=1;" vertex="1" parent="1">
          <mxGeometry x="960" y="250" width="120" height="60" as="geometry" />
        </mxCell>
        <mxCell id="NZoPy9VmbZLPDRG8ih34-40" value="" style="edgeStyle=orthogonalEdgeStyle;rounded=0;orthogonalLoop=1;jettySize=auto;html=1;" edge="1" parent="1" source="NZoPy9VmbZLPDRG8ih34-36" target="NZoPy9VmbZLPDRG8ih34-39">
          <mxGeometry relative="1" as="geometry" />
        </mxCell>
        <mxCell id="NZoPy9VmbZLPDRG8ih34-36" value="&lt;h1&gt;执行优先级&lt;/h1&gt;&lt;div&gt;一，重要性角度：重要紧急；重要不紧急；不重要不紧急&lt;/div&gt;&lt;div&gt;二，周期性角度：长期；中期；短期&lt;/div&gt;" style="text;html=1;strokeColor=none;fillColor=none;spacing=5;spacingTop=-20;whiteSpace=wrap;overflow=hidden;rounded=0;" vertex="1" parent="1">
          <mxGeometry x="502.5" y="385" width="235" height="120" as="geometry" />
        </mxCell>
        <mxCell id="NZoPy9VmbZLPDRG8ih34-39" value="&lt;h1&gt;执行内容-领域-形式&lt;/h1&gt;&lt;div&gt;&lt;ol&gt;&lt;li&gt;项目任务【多步长期完成】&lt;br&gt;&lt;/li&gt;&lt;ol&gt;&lt;li&gt;project：各个领域的&lt;br&gt;&lt;/li&gt;&lt;li&gt;任务：项目相关的任务&lt;/li&gt;&lt;/ol&gt;&lt;li&gt;&lt;span style=&quot;background-color: initial;&quot;&gt;代办清单【单步短期完成的】&lt;/span&gt;&lt;br&gt;&lt;/li&gt;&lt;li&gt;&lt;span style=&quot;background-color: initial;&quot;&gt;行程安排【行动清单 】&lt;/span&gt;&lt;/li&gt;&lt;ol&gt;&lt;li&gt;&lt;span style=&quot;background-color: initial;&quot;&gt;结合上面两步根据项目任务和代办清单的重要性时间安排 自动生成daily dashborad&amp;nbsp;&lt;/span&gt;&lt;/li&gt;&lt;li&gt;落地执行清单&lt;/li&gt;&lt;/ol&gt;&lt;/ol&gt;&lt;/div&gt;" style="text;html=1;strokeColor=none;fillColor=none;spacing=5;spacingTop=-20;whiteSpace=wrap;overflow=hidden;rounded=0;" vertex="1" parent="1">
          <mxGeometry x="502.5" y="585" width="235" height="240" as="geometry" />
        </mxCell>
        <mxCell id="NZoPy9VmbZLPDRG8ih34-56" value="" style="edgeStyle=orthogonalEdgeStyle;rounded=0;orthogonalLoop=1;jettySize=auto;html=1;" edge="1" parent="1" source="NZoPy9VmbZLPDRG8ih34-41" target="NZoPy9VmbZLPDRG8ih34-55">
          <mxGeometry relative="1" as="geometry" />
        </mxCell>
        <mxCell id="NZoPy9VmbZLPDRG8ih34-41" value="人生战略系统" style="text;html=1;strokeColor=none;fillColor=none;align=center;verticalAlign=middle;whiteSpace=wrap;rounded=0;" vertex="1" parent="1">
          <mxGeometry x="20" y="80" width="90" height="30" as="geometry" />
        </mxCell>
        <mxCell id="NZoPy9VmbZLPDRG8ih34-42" value="" style="shape=table;startSize=0;container=1;collapsible=0;childLayout=tableLayout;fontSize=16;" vertex="1" parent="1">
          <mxGeometry x="420" y="42" width="180" height="120" as="geometry" />
        </mxCell>
        <mxCell id="NZoPy9VmbZLPDRG8ih34-43" value="" style="shape=tableRow;horizontal=0;startSize=0;swimlaneHead=0;swimlaneBody=0;strokeColor=inherit;top=0;left=0;bottom=0;right=0;collapsible=0;dropTarget=0;fillColor=none;points=[[0,0.5],[1,0.5]];portConstraint=eastwest;fontSize=16;" vertex="1" parent="NZoPy9VmbZLPDRG8ih34-42">
          <mxGeometry width="180" height="40" as="geometry" />
        </mxCell>
        <mxCell id="NZoPy9VmbZLPDRG8ih34-44" value="健康" style="shape=partialRectangle;html=1;whiteSpace=wrap;connectable=0;strokeColor=inherit;overflow=hidden;fillColor=none;top=0;left=0;bottom=0;right=0;pointerEvents=1;fontSize=16;" vertex="1" parent="NZoPy9VmbZLPDRG8ih34-43">
          <mxGeometry width="60" height="40" as="geometry">
            <mxRectangle width="60" height="40" as="alternateBounds" />
          </mxGeometry>
        </mxCell>
        <mxCell id="NZoPy9VmbZLPDRG8ih34-45" value="学习" style="shape=partialRectangle;html=1;whiteSpace=wrap;connectable=0;strokeColor=inherit;overflow=hidden;fillColor=none;top=0;left=0;bottom=0;right=0;pointerEvents=1;fontSize=16;" vertex="1" parent="NZoPy9VmbZLPDRG8ih34-43">
          <mxGeometry x="60" width="60" height="40" as="geometry">
            <mxRectangle width="60" height="40" as="alternateBounds" />
          </mxGeometry>
        </mxCell>
        <mxCell id="NZoPy9VmbZLPDRG8ih34-46" value="工作" style="shape=partialRectangle;html=1;whiteSpace=wrap;connectable=0;strokeColor=inherit;overflow=hidden;fillColor=none;top=0;left=0;bottom=0;right=0;pointerEvents=1;fontSize=16;" vertex="1" parent="NZoPy9VmbZLPDRG8ih34-43">
          <mxGeometry x="120" width="60" height="40" as="geometry">
            <mxRectangle width="60" height="40" as="alternateBounds" />
          </mxGeometry>
        </mxCell>
        <mxCell id="NZoPy9VmbZLPDRG8ih34-47" value="" style="shape=tableRow;horizontal=0;startSize=0;swimlaneHead=0;swimlaneBody=0;strokeColor=inherit;top=0;left=0;bottom=0;right=0;collapsible=0;dropTarget=0;fillColor=none;points=[[0,0.5],[1,0.5]];portConstraint=eastwest;fontSize=16;" vertex="1" parent="NZoPy9VmbZLPDRG8ih34-42">
          <mxGeometry y="40" width="180" height="40" as="geometry" />
        </mxCell>
        <mxCell id="NZoPy9VmbZLPDRG8ih34-48" value="生活" style="shape=partialRectangle;html=1;whiteSpace=wrap;connectable=0;strokeColor=inherit;overflow=hidden;fillColor=none;top=0;left=0;bottom=0;right=0;pointerEvents=1;fontSize=16;" vertex="1" parent="NZoPy9VmbZLPDRG8ih34-47">
          <mxGeometry width="60" height="40" as="geometry">
            <mxRectangle width="60" height="40" as="alternateBounds" />
          </mxGeometry>
        </mxCell>
        <mxCell id="NZoPy9VmbZLPDRG8ih34-49" value="休闲" style="shape=partialRectangle;html=1;whiteSpace=wrap;connectable=0;strokeColor=inherit;overflow=hidden;fillColor=none;top=0;left=0;bottom=0;right=0;pointerEvents=1;fontSize=16;" vertex="1" parent="NZoPy9VmbZLPDRG8ih34-47">
          <mxGeometry x="60" width="60" height="40" as="geometry">
            <mxRectangle width="60" height="40" as="alternateBounds" />
          </mxGeometry>
        </mxCell>
        <mxCell id="NZoPy9VmbZLPDRG8ih34-50" value="理财" style="shape=partialRectangle;html=1;whiteSpace=wrap;connectable=0;strokeColor=inherit;overflow=hidden;fillColor=none;top=0;left=0;bottom=0;right=0;pointerEvents=1;fontSize=16;" vertex="1" parent="NZoPy9VmbZLPDRG8ih34-47">
          <mxGeometry x="120" width="60" height="40" as="geometry">
            <mxRectangle width="60" height="40" as="alternateBounds" />
          </mxGeometry>
        </mxCell>
        <mxCell id="NZoPy9VmbZLPDRG8ih34-51" value="" style="shape=tableRow;horizontal=0;startSize=0;swimlaneHead=0;swimlaneBody=0;strokeColor=inherit;top=0;left=0;bottom=0;right=0;collapsible=0;dropTarget=0;fillColor=none;points=[[0,0.5],[1,0.5]];portConstraint=eastwest;fontSize=16;" vertex="1" parent="NZoPy9VmbZLPDRG8ih34-42">
          <mxGeometry y="80" width="180" height="40" as="geometry" />
        </mxCell>
        <mxCell id="NZoPy9VmbZLPDRG8ih34-52" value="习惯养成" style="shape=partialRectangle;html=1;whiteSpace=wrap;connectable=0;strokeColor=inherit;overflow=hidden;fillColor=none;top=0;left=0;bottom=0;right=0;pointerEvents=1;fontSize=16;" vertex="1" parent="NZoPy9VmbZLPDRG8ih34-51">
          <mxGeometry width="60" height="40" as="geometry">
            <mxRectangle width="60" height="40" as="alternateBounds" />
          </mxGeometry>
        </mxCell>
        <mxCell id="NZoPy9VmbZLPDRG8ih34-53" value="体验挑战" style="shape=partialRectangle;html=1;whiteSpace=wrap;connectable=0;strokeColor=inherit;overflow=hidden;fillColor=none;top=0;left=0;bottom=0;right=0;pointerEvents=1;fontSize=16;" vertex="1" parent="NZoPy9VmbZLPDRG8ih34-51">
          <mxGeometry x="60" width="60" height="40" as="geometry">
            <mxRectangle width="60" height="40" as="alternateBounds" />
          </mxGeometry>
        </mxCell>
        <mxCell id="NZoPy9VmbZLPDRG8ih34-54" value="关系管理" style="shape=partialRectangle;html=1;whiteSpace=wrap;connectable=0;strokeColor=inherit;overflow=hidden;fillColor=none;top=0;left=0;bottom=0;right=0;pointerEvents=1;fontSize=16;" vertex="1" parent="NZoPy9VmbZLPDRG8ih34-51">
          <mxGeometry x="120" width="60" height="40" as="geometry">
            <mxRectangle width="60" height="40" as="alternateBounds" />
          </mxGeometry>
        </mxCell>
        <mxCell id="NZoPy9VmbZLPDRG8ih34-55" value="" style="shape=singleArrow;whiteSpace=wrap;html=1;arrowWidth=0.4;arrowSize=0.4;" vertex="1" parent="NZoPy9VmbZLPDRG8ih34-51">
          <mxGeometry x="180" width="NaN" height="40" as="geometry">
            <mxRectangle width="NaN" height="40" as="alternateBounds" />
          </mxGeometry>
        </mxCell>
        <mxCell id="NZoPy9VmbZLPDRG8ih34-60" value="" style="edgeStyle=orthogonalEdgeStyle;rounded=0;orthogonalLoop=1;jettySize=auto;html=1;" edge="1" parent="1" source="NZoPy9VmbZLPDRG8ih34-58" target="NZoPy9VmbZLPDRG8ih34-59">
          <mxGeometry relative="1" as="geometry" />
        </mxCell>
        <mxCell id="NZoPy9VmbZLPDRG8ih34-58" value="人生战略" style="text;html=1;strokeColor=none;fillColor=none;align=center;verticalAlign=middle;whiteSpace=wrap;rounded=0;" vertex="1" parent="1">
          <mxGeometry x="30" y="-70" width="60" height="30" as="geometry" />
        </mxCell>
        <mxCell id="NZoPy9VmbZLPDRG8ih34-62" value="" style="edgeStyle=orthogonalEdgeStyle;rounded=0;orthogonalLoop=1;jettySize=auto;html=1;" edge="1" parent="1" source="NZoPy9VmbZLPDRG8ih34-59" target="NZoPy9VmbZLPDRG8ih34-61">
          <mxGeometry relative="1" as="geometry" />
        </mxCell>
        <mxCell id="NZoPy9VmbZLPDRG8ih34-59" value="愿景&lt;br&gt;人生愿景&lt;br&gt;自我洞察&lt;br&gt;里程碑" style="whiteSpace=wrap;html=1;" vertex="1" parent="1">
          <mxGeometry x="140" y="-85" width="120" height="60" as="geometry" />
        </mxCell>
        <mxCell id="NZoPy9VmbZLPDRG8ih34-64" value="" style="edgeStyle=orthogonalEdgeStyle;rounded=0;orthogonalLoop=1;jettySize=auto;html=1;" edge="1" parent="1" source="NZoPy9VmbZLPDRG8ih34-61" target="NZoPy9VmbZLPDRG8ih34-63">
          <mxGeometry relative="1" as="geometry" />
        </mxCell>
        <mxCell id="NZoPy9VmbZLPDRG8ih34-61" value="目标计划&lt;br&gt;不同领域不同阶段&lt;br&gt;领域-年月日-具体项目计划" style="whiteSpace=wrap;html=1;" vertex="1" parent="1">
          <mxGeometry x="340" y="-85" width="120" height="60" as="geometry" />
        </mxCell>
        <mxCell id="NZoPy9VmbZLPDRG8ih34-66" value="" style="edgeStyle=orthogonalEdgeStyle;rounded=0;orthogonalLoop=1;jettySize=auto;html=1;" edge="1" parent="1" source="NZoPy9VmbZLPDRG8ih34-63" target="NZoPy9VmbZLPDRG8ih34-65">
          <mxGeometry relative="1" as="geometry" />
        </mxCell>
        <mxCell id="NZoPy9VmbZLPDRG8ih34-63" value="项目任务&lt;br&gt;代办清单&lt;br&gt;行程安排&lt;br&gt;资源参考" style="whiteSpace=wrap;html=1;" vertex="1" parent="1">
          <mxGeometry x="540" y="-85" width="120" height="60" as="geometry" />
        </mxCell>
        <mxCell id="NZoPy9VmbZLPDRG8ih34-65" value="复盘迭代" style="whiteSpace=wrap;html=1;" vertex="1" parent="1">
          <mxGeometry x="740" y="-85" width="120" height="60" as="geometry" />
        </mxCell>
        <mxCell id="NZoPy9VmbZLPDRG8ih34-71" style="edgeStyle=orthogonalEdgeStyle;rounded=0;orthogonalLoop=1;jettySize=auto;html=1;entryX=0;entryY=0.5;entryDx=0;entryDy=0;" edge="1" parent="1" source="NZoPy9VmbZLPDRG8ih34-67" target="NZoPy9VmbZLPDRG8ih34-69">
          <mxGeometry relative="1" as="geometry" />
        </mxCell>
        <mxCell id="NZoPy9VmbZLPDRG8ih34-67" value="长期主义" style="text;html=1;strokeColor=none;fillColor=none;align=center;verticalAlign=middle;whiteSpace=wrap;rounded=0;" vertex="1" parent="1">
          <mxGeometry x="170" y="-115" width="60" height="30" as="geometry" />
        </mxCell>
        <mxCell id="NZoPy9VmbZLPDRG8ih34-75" style="edgeStyle=orthogonalEdgeStyle;rounded=0;orthogonalLoop=1;jettySize=auto;html=1;entryX=0;entryY=0.5;entryDx=0;entryDy=0;" edge="1" parent="1" source="NZoPy9VmbZLPDRG8ih34-69" target="NZoPy9VmbZLPDRG8ih34-70">
          <mxGeometry relative="1" as="geometry" />
        </mxCell>
        <mxCell id="NZoPy9VmbZLPDRG8ih34-69" value="OKR" style="text;html=1;strokeColor=none;fillColor=none;align=center;verticalAlign=middle;whiteSpace=wrap;rounded=0;" vertex="1" parent="1">
          <mxGeometry x="370" y="-115" width="60" height="30" as="geometry" />
        </mxCell>
        <mxCell id="NZoPy9VmbZLPDRG8ih34-77" style="edgeStyle=orthogonalEdgeStyle;rounded=0;orthogonalLoop=1;jettySize=auto;html=1;" edge="1" parent="1" source="NZoPy9VmbZLPDRG8ih34-70" target="NZoPy9VmbZLPDRG8ih34-76">
          <mxGeometry relative="1" as="geometry" />
        </mxCell>
        <mxCell id="NZoPy9VmbZLPDRG8ih34-70" value="落地执行" style="text;html=1;strokeColor=none;fillColor=none;align=center;verticalAlign=middle;whiteSpace=wrap;rounded=0;" vertex="1" parent="1">
          <mxGeometry x="580" y="-115" width="60" height="30" as="geometry" />
        </mxCell>
        <mxCell id="NZoPy9VmbZLPDRG8ih34-76" value="复盘归档" style="text;html=1;strokeColor=none;fillColor=none;align=center;verticalAlign=middle;whiteSpace=wrap;rounded=0;" vertex="1" parent="1">
          <mxGeometry x="760" y="-115" width="60" height="30" as="geometry" />
        </mxCell>
        <mxCell id="NZoPy9VmbZLPDRG8ih34-81" value="" style="rounded=0;whiteSpace=wrap;html=1;fillColor=none;" vertex="1" parent="1">
          <mxGeometry x="560" y="230" width="320" height="100" as="geometry" />
        </mxCell>
        <mxCell id="NZoPy9VmbZLPDRG8ih34-82" value="归档" style="whiteSpace=wrap;html=1;" vertex="1" parent="1">
          <mxGeometry x="1160" y="250" width="120" height="60" as="geometry" />
        </mxCell>
        <mxCell id="NZoPy9VmbZLPDRG8ih34-93" value="备注" style="swimlane;fontStyle=0;childLayout=stackLayout;horizontal=1;startSize=30;horizontalStack=0;resizeParent=1;resizeParentMax=0;resizeLast=0;collapsible=1;marginBottom=0;whiteSpace=wrap;html=1;" vertex="1" parent="1">
          <mxGeometry x="10" y="-500" width="440" height="170" as="geometry" />
        </mxCell>
        <mxCell id="NZoPy9VmbZLPDRG8ih34-87" value="&lt;ol&gt;&lt;li&gt;概述&lt;/li&gt;&lt;ol&gt;&lt;li&gt;人不为己，天诛地灭&lt;/li&gt;&lt;li&gt;穷则独善其身，富则兼济天下&lt;/li&gt;&lt;/ol&gt;&lt;li&gt;注意&lt;/li&gt;&lt;ol&gt;&lt;li&gt;目标不等于结果，执行落地才是结果，不要停留在想的层面，而是真实的经历，干的过程中！执行力！&lt;/li&gt;&lt;/ol&gt;&lt;/ol&gt;" style="text;strokeColor=none;fillColor=none;html=1;whiteSpace=wrap;verticalAlign=middle;overflow=hidden;" vertex="1" parent="NZoPy9VmbZLPDRG8ih34-93">
          <mxGeometry y="30" width="440" height="140" as="geometry" />
        </mxCell>
        <mxCell id="NZoPy9VmbZLPDRG8ih34-99" value="热爱" style="ellipse;whiteSpace=wrap;html=1;aspect=fixed;fillStyle=auto;fillColor=none;" vertex="1" parent="1">
          <mxGeometry x="160" y="20" width="80" height="80" as="geometry" />
        </mxCell>
        <mxCell id="NZoPy9VmbZLPDRG8ih34-100" value="擅长" style="ellipse;whiteSpace=wrap;html=1;aspect=fixed;fillColor=none;" vertex="1" parent="1">
          <mxGeometry x="120" y="70" width="80" height="80" as="geometry" />
        </mxCell>
        <mxCell id="NZoPy9VmbZLPDRG8ih34-101" value="&amp;nbsp;价值" style="ellipse;whiteSpace=wrap;html=1;aspect=fixed;fillColor=none;" vertex="1" parent="1">
          <mxGeometry x="200" y="60" width="80" height="80" as="geometry" />
        </mxCell>
        <mxCell id="NZoPy9VmbZLPDRG8ih34-102" value="需求" style="ellipse;whiteSpace=wrap;html=1;aspect=fixed;fillColor=none;" vertex="1" parent="1">
          <mxGeometry x="170" y="100" width="80" height="80" as="geometry" />
        </mxCell>
        <mxCell id="NZoPy9VmbZLPDRG8ih34-103" value="" style="shape=curlyBracket;whiteSpace=wrap;html=1;rounded=1;labelPosition=left;verticalLabelPosition=middle;align=right;verticalAlign=middle;" vertex="1" parent="1">
          <mxGeometry x="350" y="35" width="30" height="130" as="geometry" />
        </mxCell>
        <mxCell id="NZoPy9VmbZLPDRG8ih34-104" value="人&lt;br&gt;生&lt;br&gt;构&lt;br&gt;成&lt;br&gt;要&lt;br&gt;素" style="text;html=1;strokeColor=none;fillColor=none;align=center;verticalAlign=middle;whiteSpace=wrap;rounded=0;" vertex="1" parent="1">
          <mxGeometry x="370" y="45" width="60" height="100" as="geometry" />
        </mxCell>
        <mxCell id="NZoPy9VmbZLPDRG8ih34-135" value="" style="group" vertex="1" connectable="0" parent="1">
          <mxGeometry x="750" y="10" width="300" height="190" as="geometry" />
        </mxCell>
        <mxCell id="NZoPy9VmbZLPDRG8ih34-116" value="" style="group" vertex="1" connectable="0" parent="NZoPy9VmbZLPDRG8ih34-135">
          <mxGeometry width="280" height="190" as="geometry" />
        </mxCell>
        <mxCell id="NZoPy9VmbZLPDRG8ih34-134" value="" style="group" vertex="1" connectable="0" parent="NZoPy9VmbZLPDRG8ih34-116">
          <mxGeometry x="10" y="-10" width="250" height="200" as="geometry" />
        </mxCell>
        <mxCell id="NZoPy9VmbZLPDRG8ih34-110" value="" style="triangle;whiteSpace=wrap;html=1;rotation=-90;rounded=0;shadow=0;sketch=1;curveFitting=1;jiggle=2;" vertex="1" parent="NZoPy9VmbZLPDRG8ih34-134">
          <mxGeometry x="6.875" y="-6.875" width="200" height="213.75" as="geometry" />
        </mxCell>
        <mxCell id="NZoPy9VmbZLPDRG8ih34-111" value="" style="endArrow=none;html=1;rounded=0;exitX=0.393;exitY=0.194;exitDx=0;exitDy=0;entryX=0.387;entryY=0.833;entryDx=0;entryDy=0;exitPerimeter=0;entryPerimeter=0;sketch=1;curveFitting=1;jiggle=2;" edge="1" parent="NZoPy9VmbZLPDRG8ih34-134" source="NZoPy9VmbZLPDRG8ih34-110" target="NZoPy9VmbZLPDRG8ih34-110">
          <mxGeometry width="50" height="50" relative="1" as="geometry">
            <mxPoint x="46.875" y="119" as="sourcePoint" />
            <mxPoint x="166.875" y="119" as="targetPoint" />
          </mxGeometry>
        </mxCell>
        <mxCell id="NZoPy9VmbZLPDRG8ih34-112" value="" style="endArrow=none;html=1;rounded=0;exitX=0.5;exitY=0;exitDx=0;exitDy=0;entryX=0.133;entryY=0.928;entryDx=0;entryDy=0;entryPerimeter=0;sketch=1;curveFitting=1;jiggle=2;" edge="1" parent="NZoPy9VmbZLPDRG8ih34-134">
          <mxGeometry width="50" height="50" relative="1" as="geometry">
            <mxPoint x="6.875" y="157" as="sourcePoint" />
            <mxPoint x="209.59499999999994" y="157.05937500000022" as="targetPoint" />
          </mxGeometry>
        </mxCell>
        <mxCell id="NZoPy9VmbZLPDRG8ih34-113" value="" style="endArrow=none;html=1;rounded=0;sketch=1;curveFitting=1;jiggle=2;" edge="1" parent="NZoPy9VmbZLPDRG8ih34-134">
          <mxGeometry width="50" height="50" relative="1" as="geometry">
            <mxPoint x="60.20833333333333" y="81" as="sourcePoint" />
            <mxPoint x="153.54166666666666" y="81" as="targetPoint" />
          </mxGeometry>
        </mxCell>
        <mxCell id="NZoPy9VmbZLPDRG8ih34-117" value="信息" style="text;html=1;strokeColor=none;fillColor=none;align=center;verticalAlign=middle;whiteSpace=wrap;rounded=0;" vertex="1" parent="NZoPy9VmbZLPDRG8ih34-134">
          <mxGeometry x="76.875" y="170.9375" width="60" height="30" as="geometry" />
        </mxCell>
        <mxCell id="NZoPy9VmbZLPDRG8ih34-124" value="知识&lt;br&gt;常识》》专识》见识》智慧" style="text;html=1;strokeColor=none;fillColor=none;align=center;verticalAlign=middle;whiteSpace=wrap;rounded=0;" vertex="1" parent="NZoPy9VmbZLPDRG8ih34-134">
          <mxGeometry x="30.875" y="125.9375" width="151" height="30" as="geometry" />
        </mxCell>
        <mxCell id="NZoPy9VmbZLPDRG8ih34-125" value="技能" style="text;html=1;align=center;verticalAlign=middle;resizable=0;points=[];autosize=1;strokeColor=none;fillColor=none;" vertex="1" parent="NZoPy9VmbZLPDRG8ih34-134">
          <mxGeometry x="76.875" y="84.9975" width="50" height="30" as="geometry" />
        </mxCell>
        <mxCell id="NZoPy9VmbZLPDRG8ih34-126" value="能力" style="text;html=1;align=center;verticalAlign=middle;resizable=0;points=[];autosize=1;strokeColor=none;fillColor=none;sketch=1;curveFitting=1;jiggle=2;" vertex="1" parent="NZoPy9VmbZLPDRG8ih34-134">
          <mxGeometry x="83.875" y="38.9375" width="50" height="30" as="geometry" />
        </mxCell>
        <mxCell id="NZoPy9VmbZLPDRG8ih34-128" value="" style="curved=1;endArrow=classic;html=1;rounded=0;exitX=0.075;exitY=0.977;exitDx=0;exitDy=0;exitPerimeter=0;" edge="1" parent="NZoPy9VmbZLPDRG8ih34-134" source="NZoPy9VmbZLPDRG8ih34-110">
          <mxGeometry width="50" height="50" relative="1" as="geometry">
            <mxPoint x="216.875" y="198.9375" as="sourcePoint" />
            <mxPoint x="186.875" y="138.9375" as="targetPoint" />
            <Array as="points">
              <mxPoint x="246.875" y="178.9375" />
              <mxPoint x="246.875" y="158.9375" />
              <mxPoint x="216.875" y="148.9375" />
            </Array>
          </mxGeometry>
        </mxCell>
        <mxCell id="NZoPy9VmbZLPDRG8ih34-130" value="" style="curved=1;endArrow=classic;html=1;rounded=0;entryX=1.1;entryY=0.3;entryDx=0;entryDy=0;entryPerimeter=0;exitX=0.525;exitY=0.72;exitDx=0;exitDy=0;exitPerimeter=0;" edge="1" parent="NZoPy9VmbZLPDRG8ih34-134" source="NZoPy9VmbZLPDRG8ih34-110" target="NZoPy9VmbZLPDRG8ih34-126">
          <mxGeometry width="50" height="50" relative="1" as="geometry">
            <mxPoint x="166.875" y="88.9375" as="sourcePoint" />
            <mxPoint x="148.875" y="74.9375" as="targetPoint" />
            <Array as="points">
              <mxPoint x="201.875" y="95.9375" />
              <mxPoint x="201.875" y="75.9375" />
              <mxPoint x="186.875" y="58.9375" />
            </Array>
          </mxGeometry>
        </mxCell>
        <mxCell id="NZoPy9VmbZLPDRG8ih34-131" value="提炼" style="text;html=1;strokeColor=none;fillColor=none;align=center;verticalAlign=middle;whiteSpace=wrap;rounded=0;" vertex="1" parent="NZoPy9VmbZLPDRG8ih34-134">
          <mxGeometry x="181.875" y="54.9975" width="60" height="30" as="geometry" />
        </mxCell>
        <mxCell id="NZoPy9VmbZLPDRG8ih34-129" value="" style="curved=1;endArrow=classic;html=1;rounded=0;exitX=0.075;exitY=0.977;exitDx=0;exitDy=0;exitPerimeter=0;" edge="1" parent="NZoPy9VmbZLPDRG8ih34-135">
          <mxGeometry width="50" height="50" relative="1" as="geometry">
            <mxPoint x="195" y="125" as="sourcePoint" />
            <mxPoint x="180" y="98" as="targetPoint" />
            <Array as="points">
              <mxPoint x="233" y="119" />
              <mxPoint x="233" y="99" />
              <mxPoint x="203" y="89" />
            </Array>
          </mxGeometry>
        </mxCell>
        <mxCell id="NZoPy9VmbZLPDRG8ih34-132" value="转化" style="text;html=1;strokeColor=none;fillColor=none;align=center;verticalAlign=middle;whiteSpace=wrap;rounded=0;" vertex="1" parent="NZoPy9VmbZLPDRG8ih34-135">
          <mxGeometry x="215" y="87.06" width="60" height="30" as="geometry" />
        </mxCell>
        <mxCell id="NZoPy9VmbZLPDRG8ih34-133" value="学习" style="text;html=1;strokeColor=none;fillColor=none;align=center;verticalAlign=middle;whiteSpace=wrap;rounded=0;" vertex="1" parent="NZoPy9VmbZLPDRG8ih34-135">
          <mxGeometry x="240" y="133.06" width="60" height="30" as="geometry" />
        </mxCell>
        <mxCell id="NZoPy9VmbZLPDRG8ih34-141" value="" style="edgeStyle=orthogonalEdgeStyle;rounded=0;orthogonalLoop=1;jettySize=auto;html=1;" edge="1" parent="1" source="NZoPy9VmbZLPDRG8ih34-137" target="NZoPy9VmbZLPDRG8ih34-140">
          <mxGeometry relative="1" as="geometry" />
        </mxCell>
        <mxCell id="NZoPy9VmbZLPDRG8ih34-137" value="输入" style="text;html=1;strokeColor=none;fillColor=none;align=center;verticalAlign=middle;whiteSpace=wrap;rounded=0;" vertex="1" parent="1">
          <mxGeometry x="690" width="60" height="30" as="geometry" />
        </mxCell>
        <mxCell id="NZoPy9VmbZLPDRG8ih34-144" style="edgeStyle=orthogonalEdgeStyle;rounded=0;orthogonalLoop=1;jettySize=auto;html=1;" edge="1" parent="1" source="NZoPy9VmbZLPDRG8ih34-140" target="NZoPy9VmbZLPDRG8ih34-143">
          <mxGeometry relative="1" as="geometry" />
        </mxCell>
        <mxCell id="NZoPy9VmbZLPDRG8ih34-140" value="处理" style="text;html=1;strokeColor=none;fillColor=none;align=center;verticalAlign=middle;whiteSpace=wrap;rounded=0;" vertex="1" parent="1">
          <mxGeometry x="690" y="70" width="60" height="30" as="geometry" />
        </mxCell>
        <mxCell id="NZoPy9VmbZLPDRG8ih34-143" value="输出" style="text;html=1;strokeColor=none;fillColor=none;align=center;verticalAlign=middle;whiteSpace=wrap;rounded=0;" vertex="1" parent="1">
          <mxGeometry x="690" y="125" width="60" height="35" as="geometry" />
        </mxCell>
        <mxCell id="NZoPy9VmbZLPDRG8ih34-147" value="复盘" style="text;html=1;strokeColor=none;fillColor=none;align=center;verticalAlign=middle;whiteSpace=wrap;rounded=0;" vertex="1" parent="1">
          <mxGeometry x="690" y="180" width="60" height="30" as="geometry" />
        </mxCell>
        <mxCell id="NZoPy9VmbZLPDRG8ih34-148" value="" style="edgeStyle=orthogonalEdgeStyle;rounded=0;orthogonalLoop=1;jettySize=auto;html=1;" edge="1" parent="1" source="NZoPy9VmbZLPDRG8ih34-143" target="NZoPy9VmbZLPDRG8ih34-147">
          <mxGeometry relative="1" as="geometry" />
        </mxCell>
        <mxCell id="NZoPy9VmbZLPDRG8ih34-149" value="" style="shape=curlyBracket;whiteSpace=wrap;html=1;rounded=1;labelPosition=left;verticalLabelPosition=middle;align=right;verticalAlign=middle;" vertex="1" parent="1">
          <mxGeometry x="670" y="7" width="20" height="193" as="geometry" />
        </mxCell>
        <mxCell id="NZoPy9VmbZLPDRG8ih34-153" value="" style="rounded=0;whiteSpace=wrap;html=1;fillColor=none;" vertex="1" parent="1">
          <mxGeometry x="690" width="60" height="100" as="geometry" />
        </mxCell>
        <mxCell id="NZoPy9VmbZLPDRG8ih34-155" value="" style="rounded=0;whiteSpace=wrap;html=1;fillColor=none;" vertex="1" parent="1">
          <mxGeometry x="690" y="110" width="60" height="90" as="geometry" />
        </mxCell>
        <mxCell id="NZoPy9VmbZLPDRG8ih34-158" value="主动" style="text;html=1;align=center;verticalAlign=middle;resizable=0;points=[];autosize=1;strokeColor=none;fillColor=none;" vertex="1" parent="1">
          <mxGeometry x="670" y="140" width="50" height="30" as="geometry" />
        </mxCell>
        <mxCell id="NZoPy9VmbZLPDRG8ih34-159" value="被动" style="text;html=1;align=center;verticalAlign=middle;resizable=0;points=[];autosize=1;strokeColor=none;fillColor=none;" vertex="1" parent="1">
          <mxGeometry x="670" y="30" width="50" height="30" as="geometry" />
        </mxCell>
      </root>
    </mxGraphModel>
  </diagram>
</mxfile>
